<svg width="25" height="25" viewBox="0 0 25 25" fill="none" xmlns="http://www.w3.org/2000/svg">
<path d="M14.8926 12.502C14.8926 13.8234 13.8214 14.8945 12.5 14.8945C11.1786 14.8945 10.1074 13.8234 10.1074 12.502C10.1074 11.1805 11.1786 10.1094 12.5 10.1094C13.8214 10.1094 14.8926 11.1805 14.8926 12.502Z" fill="#BBB9B4"/>
<path d="M18.0954 8.26838C17.9804 7.95672 17.7969 7.67462 17.5585 7.44307C17.327 7.20465 17.0451 7.02116 16.7332 6.90615C16.4803 6.80792 16.1003 6.691 15.4005 6.65915C14.6435 6.62463 14.4165 6.61719 12.5 6.61719C10.5833 6.61719 10.3564 6.62444 9.59953 6.65896C8.89972 6.691 8.51958 6.80792 8.26686 6.90615C7.95501 7.02116 7.67291 7.20465 7.44155 7.44307C7.20313 7.67462 7.01965 7.95653 6.90444 8.26838C6.80621 8.5213 6.68929 8.90143 6.65744 9.60124C6.62292 10.3581 6.61548 10.585 6.61548 12.5017C6.61548 14.4183 6.62292 14.6452 6.65744 15.4023C6.68929 16.1021 6.80621 16.482 6.90444 16.7349C7.01965 17.0468 7.20294 17.3287 7.44136 17.5602C7.67291 17.7986 7.95482 17.9821 8.26667 18.0971C8.51958 18.1956 8.89972 18.3125 9.59953 18.3443C10.3564 18.3789 10.5831 18.3861 12.4998 18.3861C14.4167 18.3861 14.6437 18.3789 15.4003 18.3443C16.1002 18.3125 16.4803 18.1956 16.7332 18.0971C17.3592 17.8557 17.854 17.3609 18.0954 16.7349C18.1937 16.482 18.3106 16.1021 18.3426 15.4023C18.3771 14.6452 18.3844 14.4183 18.3844 12.5017C18.3844 10.585 18.3771 10.3581 18.3426 9.60124C18.3108 8.90143 18.1938 8.5213 18.0954 8.26838ZM12.5 16.1873C10.4643 16.1873 8.81408 14.5373 8.81408 12.5016C8.81408 10.4658 10.4643 8.81579 12.5 8.81579C14.5356 8.81579 16.1858 10.4658 16.1858 12.5016C16.1858 14.5373 14.5356 16.1873 12.5 16.1873ZM16.3315 9.53143C15.8558 9.53143 15.4702 9.14576 15.4702 8.67007C15.4702 8.19438 15.8558 7.80871 16.3315 7.80871C16.8072 7.80871 17.1929 8.19438 17.1929 8.67007C17.1927 9.14576 16.8072 9.53143 16.3315 9.53143Z" fill="#BBB9B4"/>
<path d="M12.5 0C5.5975 0 0 5.5975 0 12.5C0 19.4025 5.5975 25 12.5 25C19.4025 25 25 19.4025 25 12.5C25 5.5975 19.4025 0 12.5 0ZM19.6344 15.4593C19.5997 16.2233 19.4782 16.745 19.3008 17.2016C18.928 18.1658 18.1658 18.928 17.2016 19.3008C16.7452 19.4782 16.2233 19.5995 15.4594 19.6344C14.694 19.6693 14.4495 19.6777 12.5002 19.6777C10.5507 19.6777 10.3064 19.6693 9.54075 19.6344C8.77686 19.5995 8.255 19.4782 7.79858 19.3008C7.31945 19.1206 6.88572 18.8381 6.52714 18.4729C6.16207 18.1145 5.87959 17.6805 5.69935 17.2016C5.52197 16.7452 5.40047 16.2233 5.36575 15.4594C5.33047 14.6938 5.32227 14.4493 5.32227 12.5C5.32227 10.5507 5.33047 10.3062 5.36556 9.54075C5.40028 8.77666 5.52158 8.255 5.69897 7.79839C5.87921 7.31945 6.16188 6.88553 6.52714 6.52714C6.88553 6.16188 7.31945 5.8794 7.79839 5.69916C8.255 5.52177 8.77666 5.40047 9.54075 5.36556C10.3062 5.33066 10.5507 5.32227 12.5 5.32227C14.4493 5.32227 14.6938 5.33066 15.4593 5.36575C16.2233 5.40047 16.745 5.52177 17.2016 5.69897C17.6805 5.87921 18.1145 6.16188 18.4731 6.52714C18.8381 6.88572 19.1208 7.31945 19.3008 7.79839C19.4784 8.255 19.5997 8.77666 19.6346 9.54075C19.6695 10.3062 19.6777 10.5507 19.6777 12.5C19.6777 14.4493 19.6695 14.6938 19.6344 15.4593Z" fill="#BBB9B4"/>
</svg>
