<svg width="140" height="46" viewBox="0 0 140 46" fill="none" xmlns="http://www.w3.org/2000/svg">
<path d="M90.8654 0.0295675C90.7717 0.0413793 90.4381 0.0827206 90.1338 0.118156C88.7876 0.271709 87.1371 0.738275 86.0134 1.28752C84.2634 2.13797 82.7826 3.53767 82.0042 5.07911C81.3955 6.28391 81.1028 7.55368 81.1028 9.03016C81.097 11.8355 82.2968 13.9793 84.8018 15.6507C86.7157 16.9323 89.0686 17.7945 93.0309 18.6863C93.8386 18.8635 94.8746 19.1174 95.3487 19.2474C98.9599 20.2336 100.727 21.4089 101.383 23.2457C101.553 23.7358 101.599 25.0292 101.465 25.6375C100.967 27.8877 98.6906 29.5354 95.4891 29.9666C94.6522 30.0788 92.8846 30.0788 91.9365 29.9666C88.9339 29.6122 86.5694 28.4901 84.1288 26.2518C83.6254 25.7911 83.5552 25.7439 83.3386 25.7439C83.1104 25.7439 83.0635 25.7793 82.3319 26.5057L81.5652 27.2676L81.8754 27.6101C82.6656 28.5019 84.0995 29.6772 85.235 30.3741C87.3186 31.6498 89.8528 32.4707 92.4281 32.7187C93.4114 32.8073 95.8637 32.7601 96.689 32.6301C101.482 31.8683 104.596 29.2106 105.263 25.3009C105.597 23.3165 105.281 21.3912 104.356 19.8439C103.004 17.5701 100.212 15.8692 95.8696 14.6762C95.4657 14.5699 94.3478 14.2982 93.388 14.0797C90.5903 13.4478 89.2851 13.0403 87.939 12.3729C86.3763 11.5992 85.5276 10.7488 85.0886 9.52035C84.913 9.02425 84.8721 7.79583 85.0125 7.16389C85.4808 4.97871 87.5936 3.37231 90.6956 2.84668C91.4799 2.71675 93.8386 2.69903 94.6697 2.81715C96.291 3.04748 97.5786 3.43727 98.8838 4.09283C100.183 4.74248 101.242 5.49252 102.442 6.61465C102.846 6.98672 102.928 7.03987 103.127 7.03987C103.338 7.03987 103.408 6.98672 104.116 6.30754C104.538 5.90594 104.883 5.54568 104.883 5.51615C104.883 5.42165 103.472 4.03967 102.928 3.59673C100.552 1.6655 97.4908 0.431169 94.2191 0.0827206C93.4523 0.00594387 91.3804 -0.0294915 90.8654 0.0295675ZM41.3796 16.7551V33.0613L41.5201 33.2266L41.6605 33.392H44.0426L44.0719 20.1628L44.1012 6.93947L55.362 19.6549C63.1522 28.4547 66.7283 32.447 66.9682 32.6242C67.6998 33.1735 68.291 33.3566 69.4323 33.4038L70.2341 33.4392V0.880017L70.0644 0.691028L69.8946 0.496134L68.7182 0.478416L67.5418 0.454792L67.5301 13.6131L67.5125 26.7656L56.3161 14.2214C50.153 7.32335 44.9674 1.54738 44.786 1.39383C44.4055 1.06901 43.7968 0.755993 43.2818 0.614252C43.0886 0.567004 42.5794 0.507945 42.158 0.484322L41.3796 0.448886V16.7551ZM110.443 0.496134C110.443 0.513851 113.247 5.09683 116.676 10.6779L122.91 20.8242V33.4215H124.671C125.895 33.4215 126.509 33.3979 126.679 33.3507C127.007 33.2503 127.323 32.9136 127.405 32.577C127.457 32.3821 127.475 30.7107 127.475 26.5293V20.7534L133.737 10.6366C137.185 5.07321 140 0.507945 140 0.490228C140 0.437075 137.793 0.47251 137.571 0.531569C137.442 0.567004 137.255 0.655593 137.156 0.73237C137.038 0.826864 135.195 3.79163 131.683 9.52625C128.774 14.2864 126.38 18.1843 126.363 18.1843C126.345 18.1784 124.08 14.5049 121.329 10.0224C115.839 1.06901 116.003 1.31705 115.178 0.891829C114.47 0.531569 114.341 0.507945 112.304 0.484322C111.28 0.466604 110.443 0.47251 110.443 0.496134ZM16.4992 0.767805C16.4289 0.909547 12.689 8.30373 8.18813 17.198C3.68144 26.0923 0 33.3802 0 33.392C0 33.4511 2.08946 33.4156 2.31187 33.3566C2.7801 33.2266 2.8796 33.0613 5.06271 28.7086L7.1112 24.6217L15.4515 24.6276H23.7918L25.6355 28.2716C27.362 31.6793 27.5025 31.9391 27.8478 32.3112C28.2926 32.7837 28.6497 33.0258 29.2174 33.2325C29.6388 33.3802 29.6798 33.3861 31.5059 33.4097C32.5242 33.4215 33.3612 33.4215 33.3612 33.4038C33.3612 33.3566 16.7274 0.620157 16.6806 0.561098C16.6513 0.537475 16.5753 0.626063 16.4992 0.767805ZM18.9983 15.2018C20.9239 18.9993 22.51 22.1413 22.5217 22.1826C22.5393 22.2476 21.2166 22.2594 15.4515 22.2594C9.39381 22.2594 8.36371 22.2476 8.38127 22.1767C8.42224 21.9877 15.4222 8.20924 15.4574 8.25058C15.4749 8.2742 17.0727 11.3984 18.9983 15.2018ZM29.4105 42.617C28.8721 43.875 28.3395 45.1152 28.2341 45.3633L28.041 45.8239H28.7726L29.0594 45.1447L29.352 44.4656L30.6572 44.4774L31.9624 44.4951L32.2433 45.1447L32.5242 45.7944L32.8871 45.8121C33.2207 45.8298 33.25 45.818 33.2207 45.7235C33.2032 45.6645 32.6764 44.436 32.056 42.9891L30.9323 40.361L30.663 40.3432L30.3938 40.3255L29.4105 42.617ZM31.1371 42.5757C31.3946 43.1722 31.6054 43.686 31.6054 43.7096C31.6054 43.7332 31.1664 43.7568 30.6338 43.7568C29.7324 43.7568 29.6622 43.7509 29.6973 43.6505C29.7793 43.4261 30.6396 41.4654 30.6513 41.4772C30.6572 41.4831 30.8796 41.9792 31.1371 42.5757ZM100.3 41.3768C100.054 41.9555 99.5276 43.1899 99.1296 44.123L98.398 45.8239H99.1355L99.4164 45.1447L99.7032 44.4656L101.014 44.4833L102.325 44.4951L102.606 45.1447L102.887 45.7944L103.238 45.8121C103.437 45.8239 103.595 45.8062 103.595 45.7826C103.595 45.7589 103.074 44.5187 102.442 43.0363L101.283 40.3314H100.745L100.3 41.3768ZM101.529 42.6347L102.003 43.7568H101.008C100.236 43.7568 100.019 43.7391 100.043 43.6801C100.247 43.1663 100.985 41.5126 101.014 41.5126C101.032 41.5126 101.266 42.0205 101.529 42.6347ZM36.1706 43.1013V45.8239H36.8729V43.7509L37.704 43.7687L38.5293 43.7864L38.9975 44.8022L39.4657 45.8239H39.8403C40.0393 45.8239 40.209 45.8121 40.209 45.8062C40.209 45.7944 39.9808 45.2924 39.7057 44.6959C39.2492 43.7096 39.214 43.6033 39.3077 43.5501C39.8169 43.2548 40.1037 42.7292 40.1095 42.0737C40.1154 41.3413 39.7759 40.798 39.1614 40.5558C38.8687 40.4436 38.6931 40.4259 37.505 40.4023L36.1706 40.3787V43.1013ZM38.9741 41.2468C39.3077 41.4476 39.4189 41.6484 39.4189 42.0619C39.413 42.5166 39.2784 42.7706 38.9507 42.93C38.74 43.0304 38.5878 43.0481 37.7918 43.0481H36.8729V41.0874L37.8269 41.111C38.6463 41.1287 38.8043 41.1464 38.9741 41.2468ZM43.3696 43.1013V45.8239H44.0719V43.7687L45.0844 43.745C46.2257 43.7155 46.4833 43.6505 46.8344 43.3021C47.3261 42.8178 47.4607 41.9555 47.1505 41.3118C47.0627 41.1346 46.893 40.9043 46.7759 40.8039C46.3838 40.4791 46.1614 40.4377 44.704 40.4023L43.3696 40.3787V43.1013ZM46.1731 41.2468C46.5125 41.4476 46.6179 41.6484 46.6179 42.0737C46.6179 42.4812 46.5301 42.6584 46.214 42.8946C46.0677 43.0068 45.9565 43.0186 45.061 43.0363L44.0719 43.054V41.0874L45.0259 41.111C45.8453 41.1287 46.0033 41.1464 46.1731 41.2468ZM76.9239 40.4791C75.7475 40.798 75.1271 41.7134 75.1271 43.1367C75.1271 44.0344 75.3378 44.6486 75.8294 45.1743C76.6898 46.1015 78.4339 46.1192 79.3353 45.2038C79.8094 44.7254 80.0669 44.0049 80.0669 43.1367C80.0669 42.0087 79.5987 41.0815 78.8436 40.6917C78.2993 40.4082 77.5033 40.3255 76.9239 40.4791ZM78.4866 41.3118C79.0836 41.6366 79.3587 42.2095 79.3645 43.1249C79.3704 44.4006 78.8085 45.0975 77.7258 45.1624C76.8888 45.2097 76.3679 44.9321 76.0284 44.2648C75.8294 43.8632 75.8236 43.8454 75.8236 43.1426C75.8236 42.2981 75.9289 41.991 76.3503 41.5717C76.7015 41.2232 77.0936 41.0933 77.6965 41.1169C78.0828 41.1346 78.2232 41.1642 78.4866 41.3118ZM83.3445 43.1072V45.8239H83.9883L84 43.7037L84.0176 41.5776L84.9833 42.7587C85.5159 43.4084 85.99 43.9931 86.0426 44.064C86.1304 44.1762 86.1714 44.1348 87.1839 42.9064C87.7575 42.2095 88.2492 41.6366 88.2784 41.6307C88.3018 41.6307 88.3194 42.5757 88.3194 43.7273V45.8239H88.9632V40.3787L88.6589 40.42C88.4833 40.4436 88.3077 40.5027 88.2609 40.5558C88.214 40.6149 87.7166 41.2114 87.1547 41.8847L86.1421 43.1072L85.0242 41.7488L83.9122 40.3905H83.3445V43.1072ZM92.4749 43.1013V45.8239H93.1187V43.7687L94.1605 43.7391C95.3311 43.7096 95.5242 43.6623 95.8988 43.3316C96.5426 42.7587 96.5719 41.5126 95.9574 40.8925C95.5594 40.485 95.337 40.4377 93.8094 40.4023L92.4749 40.3787V43.1013ZM95.2843 41.2468C95.852 41.5835 95.8754 42.4812 95.3252 42.8946C95.1731 43.0068 95.0677 43.0186 94.1371 43.0363L93.1187 43.054V41.0874L94.102 41.111C94.9565 41.1287 95.1028 41.1464 95.2843 41.2468ZM106.563 40.4318C106.539 40.4495 106.522 41.6721 106.522 43.1485V45.8239H107.224L107.236 43.7214L107.253 41.613L108.98 43.7155L110.707 45.8239H111.321V40.3846L110.987 40.4023L110.648 40.42L110.619 42.5225L110.589 44.6309L108.845 42.5107L107.101 40.3905H106.849C106.715 40.3905 106.58 40.4082 106.563 40.4318ZM114.048 40.4614C114.072 40.5027 114.575 41.1996 115.166 42.0028L116.237 43.4675V45.8239H116.881V43.4556L117.993 41.9378L119.105 40.42L118.742 40.4023C118.549 40.3905 118.356 40.3964 118.315 40.4141C118.274 40.4259 117.87 40.9575 117.414 41.5953C116.951 42.2331 116.559 42.741 116.536 42.7233C116.513 42.7115 116.115 42.18 115.658 41.5421L114.827 40.3905H114.417C114.101 40.3905 114.019 40.4082 114.048 40.4614ZM22.4925 40.5677C22.0594 40.7094 21.7023 40.9693 21.4097 41.365C21.0995 41.7843 20.9532 42.2567 20.9122 42.9595C20.8654 43.9222 21.0995 44.6782 21.6263 45.2038C22.3344 45.9243 23.6045 46.0897 24.5761 45.5936C24.8219 45.4636 25.2433 45.0739 25.4482 44.7727L25.5886 44.5837L25.2726 44.4419L24.9624 44.3002L24.8453 44.4537C24.4941 44.9321 24.0025 45.1743 23.388 45.1743C22.6329 45.1743 22.0945 44.8672 21.8018 44.2648C21.398 43.4261 21.5385 42.1682 22.0945 41.6012C22.4222 41.2764 22.7851 41.1405 23.3528 41.1346C23.9323 41.1346 24.301 41.2646 24.6522 41.613C24.7692 41.7252 24.8863 41.8138 24.9156 41.802C25.0619 41.737 25.4599 41.4772 25.4599 41.4476C25.4599 41.3236 24.7224 40.7389 24.4239 40.6208C23.9323 40.4318 22.9958 40.4023 22.4925 40.5677ZM50.2759 43.1367V45.8239H54.1388V45.1743H50.9783V43.4616H53.9047V42.8119H50.9783V41.0992H54.1388V40.4495H50.2759V43.1367ZM56.714 40.7744V41.0992H58.6455V45.8239H59.3478V41.0992H61.2793V40.4495H56.714V40.7744ZM69.2625 40.5736C68.5544 40.8216 68.0569 41.3531 67.8227 42.1268C67.7174 42.4576 67.694 42.682 67.694 43.1958C67.6998 44.1821 67.9281 44.7608 68.5309 45.3101C69.204 45.9184 70.3746 46.0601 71.2701 45.6349C71.551 45.505 72.1421 44.9616 72.2768 44.7195C72.3411 44.5955 72.3236 44.5778 72.0543 44.4419L71.7676 44.2943L71.5627 44.5423C71.4515 44.6782 71.2174 44.8731 71.0477 44.9676C70.755 45.1329 70.6848 45.1447 70.1463 45.1447C69.602 45.1447 69.5376 45.1329 69.2391 44.9617C68.8587 44.749 68.5836 44.3711 68.4431 43.8868C68.3144 43.4379 68.3553 42.5343 68.5192 42.1563C68.8177 41.4772 69.362 41.1346 70.1463 41.1346C70.5619 41.1287 70.6614 41.1523 71.0067 41.3236C71.2232 41.4299 71.4574 41.5894 71.5217 41.6721C71.6446 41.8315 71.6447 41.8315 71.8319 41.7311C72.2182 41.5126 72.2416 41.4831 72.1421 41.3177C72.0017 41.1051 71.6154 40.8157 71.2408 40.6385C70.9599 40.5086 70.8077 40.485 70.2634 40.4673C69.7249 40.4495 69.561 40.4673 69.2625 40.5736ZM0 43.0777V43.4616H15.8085L15.791 43.0895L15.7734 42.7233L7.88963 42.7056L0 42.6938V43.0777ZM124.238 42.7942C124.215 42.8119 124.197 42.9891 124.197 43.1781V43.5206H140V42.7528H132.14C127.814 42.7528 124.256 42.7706 124.238 42.7942Z" fill="#222222"/>
</svg>
